<?xml version="1.0" encoding="iso-8859-1"?>
<!-- Uploaded to: SVG Repo, www.svgrepo.com, Generator: SVG Repo Mixer Tools -->
<svg fill="#000000" height="800px" width="800px" version="1.1" id="Layer_1" xmlns="http://www.w3.org/2000/svg" xmlns:xlink="http://www.w3.org/1999/xlink" 
	 viewBox="0 0 512.001 512.001" xml:space="preserve">
<g>
	<g>
		<path d="M438.96,475.673c-0.002-0.27-0.02-0.541-0.041-0.813c-0.009-0.126-0.013-0.254-0.027-0.379
			c-0.025-0.227-0.065-0.452-0.104-0.68c-0.028-0.17-0.052-0.342-0.087-0.509c-0.035-0.161-0.083-0.322-0.124-0.482
			c-0.059-0.229-0.117-0.457-0.19-0.681c-0.036-0.113-0.084-0.225-0.124-0.338c-0.094-0.263-0.192-0.523-0.303-0.776
			c-0.012-0.027-0.02-0.055-0.032-0.082L364.47,307.532c-1.013-2.415-2.005-4.968-2.953-7.6
			c-6.658-18.432-9.978-37.735-9.866-57.383c0.091-17.123,2.816-34.007,8.086-50.271h67.443v0.001c6.505,0,11.78-5.275,11.78-11.78
			v-2.014c0-36.915-30.032-66.948-66.947-66.948h-99.179V83.453c0-0.067-0.009-0.133-0.011-0.2c0.001-0.067,0.011-0.133,0.011-0.2
			c0-6.505-5.275-11.78-11.78-11.78c-13.154,0-23.855-10.701-23.855-23.855c0-13.154,10.701-23.855,23.855-23.855
			c13.16,0,23.867,10.701,23.867,23.855c0,6.505,5.275,11.78,11.78,11.78c6.505,0,11.78-5.275,11.78-11.78
			C308.479,21.271,287.204,0,261.053,0c-26.146,0-47.416,21.271-47.416,47.416c0,22.08,15.171,40.683,35.636,45.934v18.187H139.984
			c-36.915,0-66.947,30.033-66.947,66.948v2.014c0,6.505,5.275,11.78,11.78,11.78h67.449c5.272,16.269,7.997,33.151,8.086,50.275
			c0.112,19.643-3.208,38.947-9.87,57.39c-0.945,2.621-1.937,5.174-2.95,7.588l-73.459,163.4c-0.012,0.027-0.02,0.055-0.032,0.083
			c-0.112,0.253-0.209,0.515-0.303,0.776c-0.04,0.113-0.087,0.225-0.124,0.338c-0.072,0.223-0.13,0.452-0.19,0.681
			c-0.042,0.16-0.09,0.32-0.124,0.482c-0.035,0.167-0.059,0.338-0.087,0.509c-0.039,0.226-0.079,0.452-0.104,0.679
			c-0.014,0.126-0.018,0.254-0.027,0.38c-0.021,0.271-0.039,0.541-0.041,0.81c0,0.032-0.005,0.061-0.005,0.093
			c0,19.981,16.256,36.237,36.237,36.237c9.417,0,18.005-3.613,24.456-9.524c6.451,5.91,15.039,9.524,24.456,9.524
			c9.414,0,17.998-3.613,24.447-9.522c6.451,5.909,15.038,9.522,24.455,9.522c9.417,0,18.005-3.613,24.456-9.524
			c6.451,5.91,15.039,9.524,24.456,9.524c9.417,0,18.005-3.613,24.456-9.524c6.451,5.91,15.039,9.524,24.456,9.524
			c9.414,0,17.998-3.613,24.447-9.522c6.451,5.909,15.038,9.522,24.455,9.522c9.417,0,18.005-3.613,24.456-9.524
			c6.451,5.91,15.039,9.524,24.456,9.524c19.981,0,36.237-16.256,36.237-36.237C438.964,475.734,438.96,475.703,438.96,475.673z
			 M380.013,135.845c16.927,3.169,30.427,16.195,34.279,32.874h-46.157L380.013,135.845z M97.705,168.719
			c3.852-16.68,17.351-29.706,34.279-32.874l11.878,32.874H97.705z M291.203,135.098c-4.937,14.715-18.848,25.352-35.205,25.352
			c-16.357,0-30.267-10.635-35.205-25.352H291.203z M156.765,135.098h39.698c5.5,27.845,30.099,48.912,59.535,48.912
			c29.436,0,54.034-21.066,59.535-48.912h39.698l-15.869,43.921c-6.037,16.719-9.672,34.058-10.852,51.689H183.487
			c-1.182-17.633-4.816-34.973-10.856-51.698L156.765,135.098z M169.084,317.057c0.039-0.086,0.075-0.172,0.113-0.26
			c0.075-0.18,0.148-0.372,0.224-0.554h86.578c6.505,0,11.78-5.275,11.78-11.78c0-6.505-5.275-11.78-11.78-11.78h-78.561
			c3.375-12.557,5.439-25.403,6.172-38.415h144.78c1.032,18.335,4.7,36.338,10.958,53.658c1.1,3.056,2.262,6.04,3.454,8.872
			c0.037,0.087,0.074,0.173,0.113,0.26l16.91,37.615H152.173L169.084,317.057z M141.58,378.234h228.836l17.271,38.416H124.309
			L141.58,378.234z M402.723,488.439c-6.989,0-12.676-5.686-12.676-12.676c0-6.505-5.275-11.78-11.78-11.78
			c-6.505,0-11.78,5.275-11.78,11.78c0,6.989-5.686,12.676-12.676,12.676c-6.991,0-12.677-5.686-12.677-12.676
			c0-6.505-5.275-11.78-11.78-11.78c-6.505,0-11.78,5.275-11.78,11.78c0,6.989-5.681,12.676-12.664,12.676
			c-6.989,0-12.676-5.686-12.676-12.676c0-6.505-5.275-11.78-11.78-11.78c-6.505,0-11.78,5.275-11.78,11.78
			c0,6.989-5.686,12.676-12.676,12.676c-6.989,0-12.676-5.686-12.676-12.676c0-6.505-5.275-11.78-11.78-11.78
			c-6.505,0-11.78,5.275-11.78,11.78c0,6.989-5.686,12.676-12.676,12.676c-6.991,0-12.677-5.686-12.677-12.676
			c0-6.505-5.275-11.78-11.78-11.78c-6.505,0-11.78,5.275-11.78,11.78c0,6.989-5.681,12.676-12.664,12.676
			c-6.989,0-12.676-5.686-12.676-12.676c0-6.505-5.275-11.78-11.78-11.78c-6.505,0-11.78,5.275-11.78,11.78
			c0,6.989-5.686,12.676-12.676,12.676c-6.271,0-11.479-4.583-12.486-10.572l16.93-37.656h284.563l16.93,37.656
			C414.203,483.857,408.994,488.439,402.723,488.439z"/>
	</g>
</g>
<g>
	<g>
		<path d="M306.125,292.155c-6.515,0-11.78,5.278-11.78,11.78s5.266,11.78,11.78,11.78c6.503,0,11.78-5.278,11.78-11.78
			S312.626,292.155,306.125,292.155z"/>
	</g>
</g>
</svg>